<svg id="visual" viewBox="0 0 960 300" width="960" height="300" xmlns="http://www.w3.org/2000/svg" xmlns:xlink="http://www.w3.org/1999/xlink" version="1.1"><rect x="0" y="0" width="960" height="300" fill="#001220"></rect><path d="M0 79L22.8 81.8C45.7 84.7 91.3 90.3 137 94C182.7 97.7 228.3 99.3 274 97.7C319.7 96 365.3 91 411.2 93.3C457 95.7 503 105.3 548.8 106C594.7 106.7 640.3 98.3 686 92.7C731.7 87 777.3 84 823 89.5C868.7 95 914.3 109 937.2 116L960 123L960 0L937.2 0C914.3 0 868.7 0 823 0C777.3 0 731.7 0 686 0C640.3 0 594.7 0 548.8 0C503 0 457 0 411.2 0C365.3 0 319.7 0 274 0C228.3 0 182.7 0 137 0C91.3 0 45.7 0 22.8 0L0 0Z" fill="#ff6f61"></path><path d="M0 60L22.8 62.2C45.7 64.3 91.3 68.7 137 72.8C182.7 77 228.3 81 274 82.5C319.7 84 365.3 83 411.2 79.8C457 76.7 503 71.3 548.8 74.2C594.7 77 640.3 88 686 88.7C731.7 89.3 777.3 79.7 823 74.2C868.7 68.7 914.3 67.3 937.2 66.7L960 66L960 0L937.2 0C914.3 0 868.7 0 823 0C777.3 0 731.7 0 686 0C640.3 0 594.7 0 548.8 0C503 0 457 0 411.2 0C365.3 0 319.7 0 274 0C228.3 0 182.7 0 137 0C91.3 0 45.7 0 22.8 0L0 0Z" fill="#f76455"></path><path d="M0 57L22.8 57C45.7 57 91.3 57 137 56.3C182.7 55.7 228.3 54.3 274 56C319.7 57.7 365.3 62.3 411.2 62.7C457 63 503 59 548.8 58C594.7 57 640.3 59 686 60C731.7 61 777.3 61 823 64.2C868.7 67.3 914.3 73.7 937.2 76.8L960 80L960 0L937.2 0C914.3 0 868.7 0 823 0C777.3 0 731.7 0 686 0C640.3 0 594.7 0 548.8 0C503 0 457 0 411.2 0C365.3 0 319.7 0 274 0C228.3 0 182.7 0 137 0C91.3 0 45.7 0 22.8 0L0 0Z" fill="#ee5849"></path><path d="M0 47L22.8 47.8C45.7 48.7 91.3 50.3 137 49.5C182.7 48.7 228.3 45.3 274 46.2C319.7 47 365.3 52 411.2 51.2C457 50.3 503 43.7 548.8 41.3C594.7 39 640.3 41 686 41.3C731.7 41.7 777.3 40.3 823 39.8C868.7 39.3 914.3 39.7 937.2 39.8L960 40L960 0L937.2 0C914.3 0 868.7 0 823 0C777.3 0 731.7 0 686 0C640.3 0 594.7 0 548.8 0C503 0 457 0 411.2 0C365.3 0 319.7 0 274 0C228.3 0 182.7 0 137 0C91.3 0 45.7 0 22.8 0L0 0Z" fill="#e64c3d"></path><path d="M0 20L22.8 18.8C45.7 17.7 91.3 15.3 137 17.5C182.7 19.7 228.3 26.3 274 26.5C319.7 26.7 365.3 20.3 411.2 19.8C457 19.3 503 24.7 548.8 26.2C594.7 27.7 640.3 25.3 686 24.2C731.7 23 777.3 23 823 24.8C868.7 26.7 914.3 30.3 937.2 32.2L960 34L960 0L937.2 0C914.3 0 868.7 0 823 0C777.3 0 731.7 0 686 0C640.3 0 594.7 0 548.8 0C503 0 457 0 411.2 0C365.3 0 319.7 0 274 0C228.3 0 182.7 0 137 0C91.3 0 45.7 0 22.8 0L0 0Z" fill="#dd3f31"></path></svg>